<?xml version="1.0" encoding="utf-8"?>
<svg version="1.1" id="Layer_1" xmlns="http://www.w3.org/2000/svg"  x="0px" y="0px"
	 viewBox="0 0 100 100" enable-background="new 0 0 100 100" xml:space="preserve">
<path fill="#DF1C22" d="M98.531,51.062C97.6,77.167,77.177,97.348,51.062,97.348c-26.115,0-47.286-20.17-47.286-46.286
	c0-25.653,20.432-46.521,45.909-47.251V0.322C22.391,0.492,0.314,22.665,0.314,50c0,27.441,22.245,49.686,49.686,49.686
	S99.686,77.441,99.686,50h-1.135C98.559,50.354,98.544,50.706,98.531,51.062z">

	<animateTransform attributeName="transform"
			attributeType="XML"
			type="rotate"
			from="0 50 50"
			to="360 50 50"
			dur="4s"
			repeatCount="indefinite" />
</path>

<path fill="#DF1C22" d="M75.337,56.343c-3.58,2.094-5.696,3.143-6.514,3.141c-3.054-0.007-4.332-1.658-4.332-4.9
	c0-2.637,0.704-5.424,2.034-8.442c1.333-3.015,2.838-5.529,2.037-6.708c-0.199-0.293-0.604-0.697-1.766-1.477
	c-0.427-0.287-1.337-0.02-1.707,0.339l0.012-0.008c-1.16,0.79-2.77,2.459-4.837,5.063c-2.501,3.145-4.284,5.379-5.376,6.702
	c-0.292,0.353-0.856,0.087-0.782-0.367c0.862-5.262,1.552-7.73,1.753-8.467c0.088-0.324,0.103-0.791,0.116-0.954
	C56.024,39.639,54.698,38,53.531,38c-1.641,0-3.442,1.13-5.4,3.47c-2.75,3.131-5.011,5.948-6.01,7.147
	c-0.261,0.314-0.804,0.23-0.892-0.171c-0.017-0.078,0.023-0.346,0.023-0.346c1.176-3.395,2.495-6.931,2.495-8.666
	c0-1.507-0.861-2.263-2.662-2.263c-1.641,0-2.894,1.958-3.13,3.543c-0.156,1.735-1.253,5.578-3.207,11.461
	c-0.796,2.219-1.653,4.699-2.703,7.488c-0.259,0.688-0.214,1.466-0.014,2.345c0.045,0.199,0.178,0.41,0.333,0.57
	c0.507,0.526,0.838,0.579,1.623,0.579c1.329,0,4.067-2.791,8.062-8.292c3.012-4.042,5.09-6.535,6.263-7.45
	c0.382-0.298,0.942-0.103,1.079,0.366l0.085,0.293c0.105,0.36,0.091,0.742-0.036,1.095c-0.185,0.51-0.516,1.324-0.993,2.477
	c-0.785,1.881-1.177,3.693-1.177,5.501c0,2.791,0.674,3.261,2.631,3.261c1.097,0,2.818-1.28,5.244-3.917
	c1.7-1.874,3.225-3.816,4.137-5.019c0.277-0.365,0.852-0.173,0.864,0.287c0.01,0.375,0.022,0.717,0.022,0.896
	c0,2.035,0.015,5.624,1.348,7.432c1.409,1.808,3.13,2.791,5.164,2.941l0.159,0.023c1,0,3.832-0.629,5.477-1.908
	c1.645-1.284,2.795-2.383,3.892-3.817c0,0,0.23-0.615-0.101-0.909C75.894,56.23,75.582,56.199,75.337,56.343z"/>
</svg>
